<svg xmlns="http://www.w3.org/2000/svg" width="63.998" height="63.998" viewBox="0 0 63.998 63.998">
  <g id="gofinancesicon" transform="translate(-333.398 -374.545)">
    <g id="Grupo_1" data-name="Grupo 1" transform="translate(333.398 374.545)">
      <circle id="Elipse_5" data-name="Elipse 5" cx="31.999" cy="31.999" r="31.999" fill="#131b4c"/>
      <circle id="Elipse_6" data-name="Elipse 6" cx="27.519" cy="27.519" r="27.519" transform="translate(4.48 4.48)" fill="#0e0439" opacity="0.1"/>
      <path id="Caminho_10" data-name="Caminho 10" d="M876.728,448.3V444.3a9.3,9.3,0,0,1-5.341-1.745l.838-2.657a8.538,8.538,0,0,0,5.027,1.705,3.85,3.85,0,0,0,4.154-3.886c0-2.181-1.362-3.529-3.945-4.719-3.561-1.586-5.76-3.41-5.76-6.86a6.235,6.235,0,0,1,5.271-6.385v-4.005h2.164v3.847a8.494,8.494,0,0,1,4.538,1.388l-.873,2.617a7.714,7.714,0,0,0-4.4-1.348,3.351,3.351,0,0,0-3.7,3.41c0,2.062,1.292,3.093,4.329,4.521,3.6,1.666,5.411,3.728,5.411,7.257a6.636,6.636,0,0,1-5.516,6.741V448.3Z" transform="translate(-846.048 -400.062)" fill="#29da88"/>
    </g>
  </g>
</svg>
